#include "notes.h"

int elka_notes[] = {
  NOTE_C4, NOTE_A4, NOTE_A4, NOTE_G4,
  NOTE_A4, NOTE_F4, NOTE_C4, NOTE_C4,
  NOTE_C4, NOTE_A4, NOTE_A4, NOTE_AS4,
  NOTE_G4, NOTE_C5, NOTE_C5, NOTE_D4,
  NOTE_D4, NOTE_AS4,NOTE_AS4,NOTE_A4,
  NOTE_G4, NOTE_F4, NOTE_C4, NOTE_A4,
  NOTE_A4, NOTE_G4, NOTE_A4, NOTE_F4
};

int elka_durations[] = {4,4,4,4,4,4,4,4,4,4,
  4,4,4,12,4,4,4,4,4,4,4,4,4,4,4,4,4,12};



int jingle_notes[] = { 
  NOTE_E5,NOTE_E5,NOTE_E5,
  NOTE_E5,NOTE_E5,NOTE_E5,
  NOTE_E5,NOTE_G5,NOTE_C5,NOTE_D5,NOTE_E5,0, 
  NOTE_F5,NOTE_F5,NOTE_F5,NOTE_F5,NOTE_F5,
  NOTE_E5,NOTE_E5,NOTE_E5,NOTE_E5,
  NOTE_D5,NOTE_D5,NOTE_E5,NOTE_D5,NOTE_G5,

  NOTE_E5,NOTE_E5,NOTE_E5,
  NOTE_E5,NOTE_E5,NOTE_E5,
  NOTE_E5,NOTE_G5,NOTE_C5,NOTE_D5,NOTE_E5,0,
  
  NOTE_F5,NOTE_F5,NOTE_F5,NOTE_F5,NOTE_F5,
  NOTE_E5,NOTE_E5,NOTE_E5,
  NOTE_G5, NOTE_G5, NOTE_F5,
  NOTE_D5, NOTE_C5

  
};
int jingle_durations[] = { 
  2, 2, 4, 2, 2, 4, 2, 2, 2, 2, 6, 2, 2, 2, 2, 2, 2, 2, 2, 2, 2, 2, 2, 2, 4, 4,
  2, 2, 4,
  2, 2, 4,
  2, 2, 2, 2, 6, 2,

  2, 2, 2, 2, 2,
  2, 2, 2, 
  2, 2, 2,
  2, 8,
};


int gusi_notes[] = {
  NOTE_F5,NOTE_E5,NOTE_D5,NOTE_C5,NOTE_G5,NOTE_G5,
  NOTE_F5,NOTE_E5,NOTE_D5,NOTE_C5,NOTE_G5,NOTE_G5,
  NOTE_F5,NOTE_A5,NOTE_A5,NOTE_F5,
  NOTE_E5,NOTE_G5,NOTE_G5,NOTE_E5,
  NOTE_D5,NOTE_E5,NOTE_F5,NOTE_D5,
  NOTE_C5,NOTE_C5,
  NOTE_F5,NOTE_A5,NOTE_A5,NOTE_F5,
  NOTE_E5,NOTE_G5,NOTE_G5,NOTE_E5,
  NOTE_D5,NOTE_E5,NOTE_F5,NOTE_D5,
  NOTE_C5,NOTE_C6,
};

int gusi_durations[] = {
  EIGHTHNOTE, EIGHTHNOTE, EIGHTHNOTE, EIGHTHNOTE,QUARTERNOTE,QUARTERNOTE,
  EIGHTHNOTE, EIGHTHNOTE, EIGHTHNOTE, EIGHTHNOTE,QUARTERNOTE,QUARTERNOTE,
  EIGHTHNOTE,EIGHTHNOTE,EIGHTHNOTE,EIGHTHNOTE,
  EIGHTHNOTE,EIGHTHNOTE,EIGHTHNOTE,EIGHTHNOTE,
  EIGHTHNOTE,EIGHTHNOTE,EIGHTHNOTE,EIGHTHNOTE,
  QUARTERNOTE,QUARTERNOTE,
  EIGHTHNOTE,EIGHTHNOTE,EIGHTHNOTE,EIGHTHNOTE,
  EIGHTHNOTE,EIGHTHNOTE,EIGHTHNOTE,EIGHTHNOTE,
  EIGHTHNOTE,EIGHTHNOTE,EIGHTHNOTE,EIGHTHNOTE,
  QUARTERNOTE,QUARTERNOTE,
};

